nColumns=19
nRows=72
DataType=double
version=3
OpenSimVersion=4.1
endheader
time	ground_force_calcn_r_vx	ground_force_calcn_r_vy	ground_force_calcn_r_vz	ground_force_calcn_r_px	ground_force_calcn_r_py	ground_force_calcn_r_pz	ground_force_calcn_r_mx	ground_force_calcn_r_my	ground_force_calcn_r_mz	ground_force_calcn_l_vx	ground_force_calcn_l_vy	ground_force_calcn_l_vz	ground_force_calcn_l_px	ground_force_calcn_l_py	ground_force_calcn_l_pz	ground_force_calcn_l_mx	ground_force_calcn_l_my	ground_force_calcn_l_mz
6.6	0.444165	410.596	-19.8946	-0.20644	0	-0.405697	-0.00726752	-6.71825	0.32552	-7.4286	323.052	21.2456	-0.203142	0	-0.764578	-0.203036	8.82957	0.580678
6.61	-0.311643	411.878	-19.528	-0.206064	0	-0.405586	0.00524851	-6.93661	0.32888	-6.85589	323.8	20.0887	-0.202915	0	-0.764274	-0.189735	8.96107	0.55595
6.62	-1.03892	413.166	-19.1429	-0.205723	0	-0.405471	0.0180134	-7.16367	0.331909	-6.3435	324.524	18.9391	-0.202716	0	-0.763986	-0.177717	9.09177	0.530593
6.63	-1.72916	414.433	-18.7328	-0.205423	0	-0.40536	0.0308607	-7.39647	0.334329	-5.90215	325.184	17.8221	-0.202536	0	-0.76372	-0.167348	9.2202	0.505323
6.64	-2.38172	415.636	-18.2902	-0.20516	0	-0.405257	0.0437318	-7.63168	0.335834	-5.53761	325.737	16.76	-0.202369	0	-0.763483	-0.158859	9.34453	0.480799
6.65	-3.00328	416.718	-17.807	-0.204932	0	-0.405167	0.0566867	-7.86552	0.336107	-5.25004	326.132	15.7693	-0.202213	0	-0.763278	-0.15233	9.46275	0.457547
6.66	-3.60515	417.614	-17.277	-0.204736	0	-0.405092	0.069872	-8.09383	0.334848	-5.03463	326.318	14.8597	-0.202068	0	-0.763105	-0.147691	9.57254	0.435909
6.67	-4.19869	418.258	-16.6959	-0.204567	0	-0.405037	0.0834419	-8.31217	0.331803	-4.88253	326.239	14.0337	-0.201933	0	-0.762963	-0.144743	9.67138	0.416029
6.68	-4.7915	418.595	-16.0626	-0.20442	0	-0.405003	0.097478	-8.51587	0.326777	-4.78269	325.837	13.2873	-0.201811	0	-0.762846	-0.14321	9.75664	0.397866
6.69	-5.3857	418.588	-15.379	-0.204292	0	-0.404993	0.111941	-8.70028	0.319649	-4.72391	325.056	12.6111	-0.201703	0	-0.762752	-0.142793	9.82566	0.381205
6.7	-5.97847	418.217	-14.6486	-0.204183	0	-0.405007	0.126672	-8.86119	0.310374	-4.69617	323.843	11.991	-0.20161	0	-0.76267	-0.143216	9.87603	0.365682
6.71	-6.56386	417.476	-13.8775	-0.204096	0	-0.405049	0.141428	-8.99516	0.299011	-4.69148	322.155	11.4098	-0.201533	0	-0.762596	-0.144256	9.90579	0.350834
6.72	-7.13536	416.379	-13.0749	-0.204031	0	-0.405118	0.155943	-9.09995	0.285751	-4.70254	319.968	10.8496	-0.201473	0	-0.76252	-0.1457	9.91365	0.336156
6.73	-7.68763	414.949	-12.2533	-0.203995	0	-0.405212	0.169977	-9.17474	0.270926	-4.72062	317.283	10.2929	-0.201434	0	-0.762433	-0.147281	9.89906	0.321134
6.74	-8.21709	413.22	-11.4279	-0.203991	0	-0.40533	0.18335	-9.22027	0.254993	-4.73369	314.134	9.72397	-0.201421	0	-0.762327	-0.148615	9.86227	0.305285
6.75	-8.72188	411.232	-10.6148	-0.204026	0	-0.405468	0.195945	-9.2387	0.238471	-4.72616	310.585	9.13	-0.201448	0	-0.762193	-0.149191	9.80427	0.288208
6.76	-9.20148	409.032	-9.83026	-0.204105	0	-0.405619	0.20771	-9.2333	0.221904	-4.68139	306.721	8.50293	-0.201524	0	-0.762025	-0.148454	9.72662	0.269641
6.77	-9.65508	406.67	-9.09199	-0.204234	0	-0.405779	0.218614	-9.20796	0.205864	-4.58461	302.64	7.8399	-0.201664	0	-0.761818	-0.1459	9.63119	0.249496
6.78	-10.08	404.204	-8.41848	-0.204419	0	-0.405941	0.228597	-9.16664	0.190917	-4.42479	298.439	7.14274	-0.20188	0	-0.761565	-0.141151	9.52025	0.227854
6.79	-10.4711	401.688	-7.8274	-0.204666	0	-0.406101	0.237558	-9.11306	0.177579	-4.19515	294.214	6.41725	-0.202183	0	-0.761266	-0.133981	9.39639	0.204949
6.8	-10.821	399.181	-7.33328	-0.204979	0	-0.40625	0.245346	-9.05072	0.166269	-3.89344	290.05	5.67178	-0.202584	0	-0.76092	-0.124332	9.26233	0.18112
6.81	-11.1215	396.737	-6.9463	-0.205362	0	-0.406386	0.251808	-8.98274	0.157275	-3.52163	286.02	4.91602	-0.203084	0	-0.760531	-0.1123	9.1208	0.156765
6.82	-11.3663	394.408	-6.67218	-0.205819	0	-0.406505	0.256822	-8.91166	0.150758	-3.08443	282.182	4.16085	-0.203687	0	-0.7601	-0.0980967	8.97448	0.132331
6.83	-11.5514	392.246	-6.51262	-0.20635	0	-0.406606	0.260318	-8.83948	0.146765	-2.58756	278.58	3.41838	-0.204393	0	-0.759633	-0.0819785	8.82591	0.1083
6.84	-11.675	390.3	-6.46544	-0.206957	0	-0.406689	0.262269	-8.76779	0.145241	-2.03683	275.239	2.70106	-0.205199	0	-0.759135	-0.064213	8.67721	0.0851539
6.85	-11.7364	388.616	-6.5248	-0.207637	0	-0.406755	0.26268	-8.69786	0.146036	-1.4383	272.179	2.0212	-0.2061	0	-0.758611	-0.0450761	8.53003	0.0633442
6.86	-11.7364	387.235	-6.68158	-0.20839	0	-0.406807	0.261579	-8.63064	0.148918	-0.799146	269.41	1.39132	-0.20709	0	-0.758071	-0.0248745	8.38575	0.0433069
6.87	-11.6767	386.191	-6.92401	-0.209212	0	-0.406848	0.259022	-8.56679	0.153594	-0.128235	266.945	0.824183	-0.208158	0	-0.757525	-0.00396098	8.24552	0.0254577
6.88	-11.5604	385.507	-7.2385	-0.2101	0	-0.406881	0.255092	-8.50661	0.159725	0.564208	264.795	0.332808	-0.209296	0	-0.756982	0.0172807	8.11021	0.0101933
6.89	-11.3906	385.195	-7.61102	-0.211047	0	-0.406912	0.249878	-8.45012	0.166965	1.26751	262.97	-0.0694547	-0.21049	0	-0.756455	0.0384652	7.98034	-0.00210774
6.9	-11.1701	385.256	-8.02866	-0.212046	0	-0.406944	0.243466	-8.3971	0.174994	1.97064	261.479	-0.368769	-0.211729	0	-0.755954	0.0592069	7.85599	-0.0110794
6.91	-10.9015	385.682	-8.48155	-0.21309	0	-0.406981	0.235931	-8.34692	0.183558	2.66195	260.334	-0.550054	-0.213004	0	-0.755489	0.0791112	7.73693	-0.0163472
6.92	-10.5856	386.459	-8.96413	-0.214172	0	-0.407026	0.22731	-8.29863	0.192492	3.32974	259.552	-0.597533	-0.214305	0	-0.755072	0.0977905	7.62275	-0.0175488
6.93	-10.2204	387.571	-9.47556	-0.215283	0	-0.407079	0.21758	-8.25093	0.201723	3.96273	259.159	-0.495406	-0.215626	0	-0.754713	0.11488	7.51304	-0.0143619
6.94	-9.80058	389.003	-10.0198	-0.21642	0	-0.407141	0.206653	-8.20242	0.211276	4.55045	259.185	-0.228485	-0.216959	0	-0.75442	0.130046	7.40719	-0.00652981
6.95	-9.31877	390.738	-10.6053	-0.217577	0	-0.407213	0.19441	-8.15164	0.22125	5.08458	259.664	0.217449	-0.218297	0	-0.7542	0.143029	7.30437	0.00611685
6.96	-8.7662	392.764	-11.2447	-0.218748	0	-0.407288	0.180723	-8.09716	0.23182	5.56059	260.634	0.85567	-0.219634	0	-0.754056	0.153687	7.20358	0.0236496
6.97	-8.13491	395.071	-11.9548	-0.219932	0	-0.407368	0.165502	-8.03759	0.243216	5.97719	262.129	1.69801	-0.220965	0	-0.75399	0.161983	7.10377	0.0460166
6.98	-7.42018	397.644	-12.7552	-0.221121	0	-0.407444	0.148751	-7.97149	0.2557	6.33504	264.178	2.7537	-0.222286	0	-0.754001	0.167955	7.00392	0.0730063
6.99	-6.62206	400.461	-13.6679	-0.222313	0	-0.407514	0.130592	-7.89738	0.269541	6.63615	266.798	4.02837	-0.223594	0	-0.754084	0.1717	6.903	0.104228
7	-5.74578	403.487	-14.7153	-0.223502	0	-0.407571	0.111269	-7.81369	0.284967	6.88373	269.99	5.52357	-0.224884	0	-0.754234	0.173373	6.79994	0.139116
7.01	-4.80236	406.679	-15.9172	-0.224682	0	-0.407611	0.0911492	-7.71881	0.30211	7.08215	273.734	7.23633	-0.226151	0	-0.754441	0.173177	6.69352	0.176948
7.02	-3.80976	409.977	-17.2896	-0.225846	0	-0.407626	0.0707291	-7.61131	0.320986	7.23611	277.986	9.15882	-0.227388	0	-0.754695	0.171346	6.5825	0.216874
7.03	-2.79114	413.308	-18.8421	-0.226988	0	-0.407616	0.0505817	-7.49006	0.34146	7.34997	282.675	11.2788	-0.228592	0	-0.754987	0.168113	6.46552	0.257976
7.04	-1.7717	416.599	-20.5764	-0.2281	0	-0.407576	0.031276	-7.35425	0.363236	7.42779	287.713	13.5801	-0.229754	0	-0.755306	0.163711	6.34129	0.29931
7.05	-0.775472	419.78	-22.4858	-0.22918	0	-0.407506	0.0133073	-7.20352	0.385862	7.47389	292.999	16.0427	-0.230869	0	-0.755646	0.158372	6.20867	0.339947
7.06	0.17635	422.79	-24.5555	-0.23022	0	-0.407408	-0.00293562	-7.038	0.408764	7.49299	298.428	18.643	-0.231934	0	-0.755999	0.152328	6.06685	0.379002
7.07	1.06468	425.577	-26.7623	-0.231221	0	-0.407285	-0.0171574	-6.85821	0.431276	7.48903	303.886	21.3531	-0.232945	0	-0.75636	0.145782	5.91548	0.415662
7.08	1.87136	428.092	-29.0761	-0.23218	0	-0.407141	-0.0291355	-6.66505	0.452691	7.46341	309.256	24.1402	-0.233899	0	-0.756723	0.138882	5.75474	0.449209
7.09	2.57875	430.288	-31.4607	-0.233094	0	-0.406979	-0.0387135	-6.45971	0.472304	7.41427	314.417	26.9659	-0.234798	0	-0.757086	0.13171	5.58544	0.479033
7.1	3.17112	432.116	-33.8755	-0.233966	0	-0.406807	-0.0458202	-6.24373	0.489474	7.33705	319.249	29.7859	-0.235644	0	-0.757444	0.124307	5.40883	0.504643
7.11	3.63669	433.532	-36.2785	-0.234796	0	-0.406629	-0.0504905	-6.019	0.503678	7.22542	323.641	32.5529	-0.236441	0	-0.757796	0.116686	5.2266	0.525709
7.12	3.96839	434.496	-38.6277	-0.235589	0	-0.406452	-0.0528608	-5.78769	0.514539	7.0722	327.494	35.2204	-0.237197	0	-0.75814	0.108855	5.04079	0.542113
7.13	4.16486	434.978	-40.8817	-0.23635	0	-0.406281	-0.0531627	-5.55231	0.521838	6.87037	330.724	37.7473	-0.237918	0	-0.758475	0.100828	4.85362	0.55397
7.14	4.23037	434.965	-43.0012	-0.237085	0	-0.406122	-0.0516999	-5.31576	0.525523	6.61471	333.265	40.1003	-0.238608	0	-0.758802	0.0926386	4.66736	0.561603
7.15	4.1732	434.458	-44.9506	-0.237801	0	-0.405978	-0.0488063	-5.08106	0.525705	6.30459	335.07	42.2545	-0.239274	0	-0.759123	0.0843738	4.48421	0.565489
7.16	4.00495	433.471	-46.7014	-0.238501	0	-0.405852	-0.0448216	-4.85121	0.522661	5.94468	336.104	44.1935	-0.23992	0	-0.759439	0.0761613	4.30606	0.566193
7.17	3.74051	432.018	-48.234	-0.239193	0	-0.405747	-0.0400775	-4.62884	0.516801	5.54319	336.352	45.9096	-0.240551	0	-0.759755	0.0681354	4.13435	0.564308
7.18	3.39871	430.114	-49.5391	-0.23988	0	-0.405662	-0.0348947	-4.41599	0.508619	5.11002	335.806	47.402	-0.24117	0	-0.760073	0.0604108	3.9699	0.560387
7.19	3.00117	427.767	-50.6155	-0.240564	0	-0.405597	-0.029566	-4.21414	0.498638	4.65446	334.467	48.6742	-0.241778	0	-0.760397	0.0530613	3.81296	0.554891
7.2	2.56983	424.978	-51.4686	-0.241246	0	-0.40555	-0.0243339	-4.02415	0.487359	4.18321	332.344	49.7329	-0.242371	0	-0.760727	0.0461087	3.66321	0.548172
7.21	2.12511	421.742	-52.1076	-0.241925	0	-0.405515	-0.0193813	-3.84634	0.475228	3.69975	329.448	50.5847	-0.242944	0	-0.76107	0.0395316	3.52014	0.540494
7.22	1.68556	418.044	-52.5431	-0.2426	0	-0.405489	-0.0148407	-3.68072	0.462623	3.20522	325.799	51.2348	-0.24349	0	-0.761423	0.0332825	3.38304	0.532014
7.23	1.26874	413.864	-52.7855	-0.243268	0	-0.405473	-0.0108118	-3.52683	0.449821	2.70035	321.422	51.6856	-0.244002	0	-0.761787	0.0273133	3.2511	0.522786
7.24	0.891553	409.175	-52.8438	-0.243927	0	-0.405462	-0.00737262	-3.38364	0.436988	2.18677	316.355	51.9368	-0.244467	0	-0.76216	0.0215887	3.12319	0.512742
7.25	0.568216	403.939	-52.726	-0.244572	0	-0.405455	-0.00457122	-3.24963	0.424174	1.66676	310.643	51.9864	-0.244874	0	-0.762539	0.0160863	2.99809	0.501734
7.26	0.308288	398.112	-52.4383	-0.245197	0	-0.405452	-0.00241837	-3.12301	0.411354	1.14309	304.339	51.8324	-0.245206	0	-0.762924	0.0107967	2.87453	0.489566
7.27	0.11718	391.645	-51.9861	-0.245796	0	-0.405451	-0.000898186	-3.00195	0.398473	0.618656	297.503	51.4749	-0.245445	0	-0.763313	0.00572116	2.75123	0.476025
7.28	-0.00373046	384.486	-51.375	-0.24636	0	-0.405451	2.7988e-05	-2.88463	0.385444	0.096422	290.205	50.9183	-0.245571	0	-0.763704	0.000872802	2.6269	0.460907
7.29	-0.0565997	376.596	-50.6119	-0.24688	0	-0.405453	0.000416199	-2.76926	0.372169	-0.418672	282.521	50.1731	-0.245573	0	-0.764095	-0.00370534	2.50037	0.444043
7.3	-0.0455224	367.957	-49.7062	-0.247346	0	-0.405451	0.000328363	-2.65415	0.358541	-0.917897	274.547	49.2555	-0.245439	0	-0.764481	-0.0079263	2.37079	0.425335
7.31	0.0237371	358.577	-48.6699	-0.247745	0	-0.405445	-0.000168	-2.53783	0.344461	-1.38966	266.394	48.1862	-0.245163	0	-0.764862	-0.011673	2.23769	0.404761
